<?xml version="1.0" encoding="UTF-8"?>
<svg version="1.1" xmlns="http://www.w3.org/2000/svg" width="239" height="239">
<path d="M0 0 C2.29296875 1.953125 2.29296875 1.953125 4 4 C7.58316666 5.8811625 9.20354446 6.08470158 13 5 C28.64173918 4.17675057 42.12492181 10.04384545 54 20 C54.54011719 20.42023437 55.08023438 20.84046875 55.63671875 21.2734375 C61.52642457 25.93179424 65.57447506 31.40269272 69 38 C69 38.66 69 39.32 69 40 C69.66 40 70.32 40 71 40 C74.54123695 51.33486089 74.54836727 62.44507444 72 74 C71.66490132 75.66631262 71.3310182 77.33287198 71 79 C70.34 79 69.68 79 69 79 C68.80664062 79.67546875 68.61328125 80.3509375 68.4140625 81.046875 C68.15367187 81.93890625 67.89328125 82.8309375 67.625 83.75 C67.36976563 84.63171875 67.11453125 85.5134375 66.8515625 86.421875 C66.0790066 88.76080572 65.16374324 90.83442562 64 93 C63.34 93 62.68 93 62 93 C61.7628125 93.85851562 61.525625 94.71703125 61.28125 95.6015625 C59.84307607 99.41623115 57.96398858 102.13501502 55.5 105.375 C54.89478516 106.19291016 54.89478516 106.19291016 54.27734375 107.02734375 C53.23912942 108.39449727 52.12478686 109.70313753 51 111 C50.34 111 49.68 111 49 111 C48.6596875 111.8353125 48.6596875 111.8353125 48.3125 112.6875 C46.63283282 115.64691361 44.43248148 117.62408786 42 120 C41.29875 120.9075 40.5975 121.815 39.875 122.75 C35.9486012 127.55029947 30.83970365 131.17476027 26 135 C24.1657986 136.45724139 22.33241208 137.91550927 20.5 139.375 C19.7059375 140.00148437 18.911875 140.62796875 18.09375 141.2734375 C16.03456446 142.90199423 16.03456446 142.90199423 14.5078125 144.5625 C12.63546172 146.34753908 10.65651068 147.41364417 8.375 148.625 C5.49917615 150.05339916 5.49917615 150.05339916 3 152 C4.22976562 152.26554688 5.45953125 152.53109375 6.7265625 152.8046875 C8.35941245 153.16128691 9.99222287 153.51806733 11.625 153.875 C12.43324219 154.04902344 13.24148437 154.22304687 14.07421875 154.40234375 C18.49390028 155.37251774 22.70838709 156.5538494 27 158 C29.39215623 158.53746933 31.7885331 159.05629597 34.1875 159.5625 C42.27065195 161.36998131 50.08652247 163.87445697 57.9375 166.5 C59.07405029 166.87970947 60.21060059 167.25941895 61.3815918 167.65063477 C80.58156405 174.1631281 80.58156405 174.1631281 82 177 C83.22944765 177.6061062 84.48414646 178.16164731 85.75 178.6875 C90.2375409 180.89091487 93.05633346 183.32806759 95 188 C96.31848688 194.52759078 94.90206041 199.45618058 91.43359375 205.02734375 C89.52812306 207.64931296 87.41280784 209.84117193 85 212 C84.443125 212.598125 83.88625 213.19625 83.3125 213.8125 C82 215 82 215 80 215 C79.67 215.99 79.34 216.98 79 218 C75.62470639 221.64203414 71.79517586 223.10013634 66.91015625 223.3203125 C62.93168785 223.36504425 58.97210506 223.21692321 55 223 C55 221.35 55 219.7 55 218 C59.95 215.525 59.95 215.525 65 213 C63.88966577 207.44832885 63.28725086 207.10825687 59 204 C58.67 203.34 58.34 202.68 58 202 C55.8439226 200.89475979 53.64975777 199.86299861 51.4375 198.875 C50.23996094 198.33617187 49.04242188 197.79734375 47.80859375 197.2421875 C46.88175781 196.83226562 45.95492187 196.42234375 45 196 C45 195.34 45 194.68 45 194 C44.01 193.8453125 44.01 193.8453125 43 193.6875 C39.16158991 192.80786436 35.66903309 191.43030104 32 190 C32 189.34 32 188.68 32 188 C30.824375 187.79375 29.64875 187.5875 28.4375 187.375 C23.27547215 186.2450443 18.52938834 184.26900518 13.66967773 182.25024414 C8.95516943 180.31622358 4.27052899 178.88179686 -0.6640625 177.64453125 C-3 177 -3 177 -6.375 175.5 C-11.74059682 173.27975304 -17.33189569 172.20180858 -23 171 C-23 170.34 -23 169.68 -23 169 C-24.175625 168.938125 -25.35125 168.87625 -26.5625 168.8125 C-27.22378906 168.77769531 -27.88507813 168.74289063 -28.56640625 168.70703125 C-31.32582268 169.03922424 -33.46515993 170.06301581 -35.97729492 171.20483398 C-39.80491272 172.70954746 -43.8474777 173.35521363 -47.875 174.125 C-49.58137499 174.45764155 -51.28714491 174.79340747 -52.9921875 175.1328125 C-53.73839355 175.27605957 -54.48459961 175.41930664 -55.25341797 175.56689453 C-57.01670269 175.8446589 -57.01670269 175.8446589 -58 177 C-61.49162965 177.28268837 -64.99831283 177.23195007 -68.5 177.25 C-69.9540625 177.2809375 -69.9540625 177.2809375 -71.4375 177.3125 C-77.88053226 177.34713996 -83.03955027 176.417148 -89 174 C-89.86753906 173.68675781 -90.73507813 173.37351563 -91.62890625 173.05078125 C-93.41927083 172.3671875 -95.20963542 171.68359375 -97 171 C-97 170.34 -97 169.68 -97 169 C-97.721875 168.773125 -98.44375 168.54625 -99.1875 168.3125 C-104.44379929 165.85956033 -107.15088543 161.88419641 -110 157 C-110.66 156.67 -111.32 156.34 -112 156 C-112 155.01 -112 154.02 -112 153 C-114.58463502 153.28250662 -117.16731135 153.5756226 -119.75 153.875 C-120.47960937 153.95363281 -121.20921875 154.03226563 -121.9609375 154.11328125 C-127.2703908 154.70808866 -127.2703908 154.70808866 -132 157 C-132.268125 157.680625 -132.53625 158.36125 -132.8125 159.0625 C-134 161 -134 161 -137.4375 161.875 C-141 162 -141 162 -144 160 C-144.64742179 155.14433654 -144.58729586 153.01797949 -142.125 148.75 C-137.16722294 143.55141662 -128.78285109 141.20867588 -121.76171875 140.90234375 C-120.73498047 140.91974609 -120.73498047 140.91974609 -119.6875 140.9375 C-117.8621875 140.9684375 -117.8621875 140.9684375 -116 141 C-116.16113281 140.43152344 -116.32226562 139.86304688 -116.48828125 139.27734375 C-119.20181803 127.20106936 -115.13953015 113.61626155 -112 102 C-111.34 102 -110.68 102 -110 102 C-109.9175 101.360625 -109.835 100.72125 -109.75 100.0625 C-107.72624276 91.79882459 -103.1286153 84.36269729 -99 77 C-98.34 77 -97.68 77 -97 77 C-96.71125 76.2575 -96.4225 75.515 -96.125 74.75 C-94.48110384 70.73158716 -93.05719955 68.05719955 -90 65 C-89.319375 63.948125 -88.63875 62.89625 -87.9375 61.8125 C-86.9784375 60.4203125 -86.9784375 60.4203125 -86 59 C-85.34 59 -84.68 59 -84 59 C-83.74734375 58.44183594 -83.4946875 57.88367188 -83.234375 57.30859375 C-79.5558007 50.42872853 -74.10808243 44.75073078 -68 40 C-65.52479927 37.58517002 -63.11587072 35.12083944 -60.72265625 32.625 C-57.06918656 29.10257298 -53.0406298 26.25392567 -48.9375 23.28125 C-45.93256124 21.05004963 -45.93256124 21.05004963 -43.3125 18.28125 C-41 16 -41 16 -38 15 C-36.99426948 14.00576355 -35.99522681 13.00475051 -35 12 C-32.34771214 10.16513856 -29.63008452 8.47440576 -26.8828125 6.78515625 C-25.15850146 5.71739183 -23.45565168 4.61159489 -21.8046875 3.43359375 C-15.23356582 -0.95131824 -7.66345629 -1.29359856 0 0 Z M-10 33 C-10 33.66 -10 34.32 -10 35 C-10.804375 35.020625 -11.60875 35.04125 -12.4375 35.0625 C-16.84754219 36.22303742 -19.33292505 38.3488239 -22.80859375 41.21875 C-24.67437855 42.73532374 -26.52703027 44.04213591 -28.5625 45.3125 C-29.366875 45.869375 -30.17125 46.42625 -31 47 C-31 47.66 -31 48.32 -31 49 C-31.763125 49.268125 -32.52625 49.53625 -33.3125 49.8125 C-35.88988618 50.95134505 -37.26954864 51.81416671 -39 54 C-39 54.66 -39 55.32 -39 56 C-39.86044922 56.38865234 -39.86044922 56.38865234 -40.73828125 56.78515625 C-43.18972216 58.10190603 -45.09234822 59.60964713 -47.1875 61.4375 C-47.88230469 62.03433594 -48.57710937 62.63117188 -49.29296875 63.24609375 C-51.23860337 64.99071085 -51.23860337 64.99071085 -52 68 C-52.99 68.33 -53.98 68.66 -55 69 C-57.40995366 71.63541018 -57.40995366 71.63541018 -58 75 C-58.598125 75.2475 -59.19625 75.495 -59.8125 75.75 C-62.31626919 77.18072525 -63.48072388 78.5691582 -65 81 C-65 81.66 -65 82.32 -65 83 C-66.485 83.495 -66.485 83.495 -68 84 C-69.65009726 86.07564866 -71.14901711 88.11995122 -72.625 90.3125 C-73.03234375 90.89451172 -73.4396875 91.47652344 -73.859375 92.07617188 C-75.83818785 94.969039 -77.49729521 97.48973382 -78 101 C-78.66 101 -79.32 101 -80 101 C-80.66 102.093125 -81.32 103.18625 -82 104.3125 C-82.37125 104.92738281 -82.7425 105.54226562 -83.125 106.17578125 C-84.21623999 108.11361926 -84.21623999 108.11361926 -84 111 C-84.66 111 -85.32 111 -86 111 C-89.33247818 117.1999082 -89.33247818 117.1999082 -91 124 C-91.66 124 -92.32 124 -93 124 C-94.65 129.28 -96.3 134.56 -98 140 C-96.76958984 140.08564209 -95.53917969 140.17128418 -94.27148438 140.25952148 C-89.67920603 140.57974739 -85.08713413 140.9028555 -80.49511719 141.22680664 C-78.51274996 141.36625748 -76.53032857 141.50494076 -74.54785156 141.64282227 C-71.68800287 141.84186199 -68.82836437 142.04371859 -65.96875 142.24609375 C-65.09134155 142.3065538 -64.21393311 142.36701385 -63.30993652 142.42930603 C-48.51444298 143.48555702 -48.51444298 143.48555702 -47 145 C-45.36154566 145.26007212 -43.71316296 145.45922323 -42.0625 145.625 C-41.16660156 145.72039062 -40.27070312 145.81578125 -39.34765625 145.9140625 C-36.97777377 146.18873416 -36.97777377 146.18873416 -35 145 C-35 144.34 -35 143.68 -35 143 C-34.195625 142.814375 -33.39125 142.62875 -32.5625 142.4375 C-28.37687901 140.74856522 -25.42488775 138.39859015 -21.953125 135.55859375 C-20 134 -20 134 -18 133 C-18 132.34 -18 131.68 -18 131 C-17.34 131 -16.68 131 -16 131 C-14.97702078 130.02351983 -13.98095748 129.01868662 -13 128 C-12.278125 127.484375 -11.55625 126.96875 -10.8125 126.4375 C-10.214375 125.963125 -9.61625 125.48875 -9 125 C-9 124.34 -9 123.68 -9 123 C-8.21625 122.7525 -7.4325 122.505 -6.625 122.25 C-3.56058543 120.79075497 -3.38274239 119.94985044 -2 117 C-0.68596724 116.29605388 0.6520257 115.63654342 2 115 C12.86299207 106.44828284 22.57239678 95.65749171 30 84 C30 83.34 30 82.68 30 82 C30.99 81.67 31.98 81.34 33 81 C35.27361255 77.23134752 35.27361255 77.23134752 36 73 C36.66 73 37.32 73 38 73 C40.87940913 66.5849443 42.5464821 61.02952752 43 54 C43.66 54 44.32 54 45 54 C45.88290175 46.34818482 43.31601908 40.31955072 39 34 C33.03852483 29.45450344 26.05666162 28.61200749 18.75 28.625 C17.98510254 28.62371094 17.22020508 28.62242188 16.43212891 28.62109375 C7.38388052 28.78250584 -1.25312106 30.82782607 -10 33 Z M-95 154 C-92.63707344 156.52588702 -91.33537489 157.88820837 -88 159 C-85.60509014 159.06970052 -83.20832309 159.08448003 -80.8125 159.0625 C-79.54019531 159.05347656 -78.26789063 159.04445312 -76.95703125 159.03515625 C-75.98121094 159.02355469 -75.00539063 159.01195312 -74 159 C-77.57259896 156.61826736 -80.92015896 156.09285928 -85.0625 155.375 C-86.16174805 155.17390625 -86.16174805 155.17390625 -87.28320312 154.96875 C-91.11738723 154.25200977 -91.11738723 154.25200977 -95 154 Z " fill="#F87C0A" transform="translate(144,7)"/>
<path d="M0 0 C0.66 0.33 1.32 0.66 2 1 C1.34 1.66 0.68 2.32 0 3 C1.22976562 3.26554688 2.45953125 3.53109375 3.7265625 3.8046875 C5.35941245 4.16128691 6.99222287 4.51806733 8.625 4.875 C9.43324219 5.04902344 10.24148437 5.22304687 11.07421875 5.40234375 C15.49390028 6.37251774 19.70838709 7.5538494 24 9 C26.39215623 9.53746933 28.7885331 10.05629597 31.1875 10.5625 C39.27065195 12.36998131 47.08652247 14.87445697 54.9375 17.5 C56.07405029 17.87970947 57.21060059 18.25941895 58.3815918 18.65063477 C65.00927971 20.89869913 71.53523773 23.31875378 78 26 C78 26.66 78 27.32 78 28 C74.01339582 27.33556597 70.50032577 26.11969505 66.75 24.625 C58.10508218 21.18811804 49.3129329 18.4378943 40.375 15.875 C39.02148438 15.47861328 39.02148438 15.47861328 37.640625 15.07421875 C33.85760928 13.98784252 30.25919936 13.03496694 26.3515625 12.5078125 C23.58978309 12.08936107 21.66828648 11.55884504 19.125 10.54296875 C14.8264863 8.83663307 10.5539744 8.03466405 6 7.3125 C5.22527344 7.18294922 4.45054687 7.05339844 3.65234375 6.91992188 C1.76941199 6.60609991 -0.11513705 6.30200645 -2 6 C-2.33 4.68 -2.66 3.36 -3 2 C-2.01 1.34 -1.02 0.68 0 0 Z " fill="#F6B983" transform="translate(147,156)"/>
<path d="M0 0 C1.299375 -0.00773438 1.299375 -0.00773438 2.625 -0.015625 C5 0.25 5 0.25 8 2.25 C8 2.91 8 3.57 8 4.25 C7.01 4.25 6.02 4.25 5 4.25 C5 3.59 5 2.93 5 2.25 C3.2365625 2.1571875 3.2365625 2.1571875 1.4375 2.0625 C0.77621094 2.02769531 0.11492187 1.99289063 -0.56640625 1.95703125 C-3.32582268 2.28922424 -5.46515993 3.31301581 -7.97729492 4.45483398 C-11.80491272 5.95954746 -15.8474777 6.60521363 -19.875 7.375 C-21.58137499 7.70764155 -23.28714491 8.04340747 -24.9921875 8.3828125 C-25.73839355 8.52605957 -26.48459961 8.66930664 -27.25341797 8.81689453 C-29.01670269 9.0946589 -29.01670269 9.0946589 -30 10.25 C-33.49162965 10.53268837 -36.99831283 10.48195007 -40.5 10.5 C-41.9540625 10.5309375 -41.9540625 10.5309375 -43.4375 10.5625 C-49.88053226 10.59713996 -55.03955027 9.667148 -61 7.25 C-61.86753906 6.93675781 -62.73507813 6.62351563 -63.62890625 6.30078125 C-66.31445312 5.27539062 -66.31445312 5.27539062 -69 4.25 C-69 3.59 -69 2.93 -69 2.25 C-68.31035156 2.44335938 -67.62070313 2.63671875 -66.91015625 2.8359375 C-64.93491648 3.38326045 -62.95681414 3.9203161 -60.9765625 4.44921875 C-59.27705723 4.90643474 -57.58101729 5.37849841 -55.8984375 5.89453125 C-40.53563044 10.14837623 -22.88005473 6.96238068 -8 2.25 C-4.76085771 0.09057181 -3.75140267 -0.02232978 0 0 Z " fill="#F8B87E" transform="translate(116,173.75)"/>
<path d="M0 0 C8.70225275 -0.23733417 17.21198667 0.07306771 25.875 0.9375 C27.2038623 1.06777588 27.2038623 1.06777588 28.55957031 1.20068359 C34.86862894 1.86862894 34.86862894 1.86862894 36 3 C38.01594582 3.23427778 40.038474 3.41336124 42.0625 3.5625 C43.16722656 3.64628906 44.27195313 3.73007813 45.41015625 3.81640625 C46.26480469 3.87699219 47.11945313 3.93757812 48 4 C47.67 4.66 47.34 5.32 47 6 C40.25581153 6.26219307 33.69097992 5.85336228 27 5.0625 C26.2582251 4.97564941 25.5164502 4.88879883 24.75219727 4.79931641 C21.69929182 4.42019972 18.92647648 3.97549216 16 3 C13.27102562 2.61496448 10.54871837 2.2601109 7.8125 1.9375 C7.06291016 1.84662109 6.31332031 1.75574219 5.54101562 1.66210938 C3.69434465 1.4386269 1.84721446 1.21894487 0 1 C0 0.67 0 0.34 0 0 Z " fill="#F6A964" transform="translate(61,148)"/>
<path d="M0 0 C0.66 1.32 1.32 2.64 2 4 C1.443125 4.598125 0.88625 5.19625 0.3125 5.8125 C-7.57054977 16.67832536 -9.25099882 28.46162168 -10.125 41.5 C-10.21136719 42.70398438 -10.29773438 43.90796875 -10.38671875 45.1484375 C-10.59744278 48.09857397 -10.8016943 51.04900717 -11 54 C-16.89225799 42.81085367 -11.09016632 26.43361537 -8 15 C-7.34 15 -6.68 15 -6 15 C-5.9175 14.360625 -5.835 13.72125 -5.75 13.0625 C-4.72237348 8.86635836 -3.12879683 3.12879683 0 0 Z " fill="#F5B67E" transform="translate(40,94)"/>
<path d="M0 0 C0 4.212717 -1.84114221 5.3416552 -4.6875 8.375 C-5.55761719 9.31085938 -6.42773438 10.24671875 -7.32421875 11.2109375 C-9.09245814 13.05403666 -10.88269983 14.87630345 -12.6953125 16.67578125 C-15.08321278 18.99106457 -15.08321278 18.99106457 -17.1875 21.8125 C-17.785625 22.534375 -18.38375 23.25625 -19 24 C-19.66 24 -20.32 24 -21 24 C-21 24.66 -21 25.32 -21 26 C-24.46153846 29 -24.46153846 29 -27 29 C-27.2371875 29.58652344 -27.474375 30.17304687 -27.71875 30.77734375 C-29.27197996 33.47181889 -30.99106021 34.74188947 -33.5 36.5625 C-36.37514757 38.65818386 -37.99874622 39.99811934 -40 43 C-42.125 43.6875 -42.125 43.6875 -44 44 C-44 43.34 -44 42.68 -44 42 C-43.34 42 -42.68 42 -42 42 C-41.67 41.01 -41.34 40.02 -41 39 C-39.35666496 37.96210419 -37.68756133 36.96432076 -36 36 C-34.98481977 35.01541425 -33.9864467 34.01337205 -33 33 C-29.34188655 29.70847787 -25.620218 26.49219919 -21.8125 23.375 C-13.68557503 16.51226336 -6.71274968 8.22853187 0 0 Z " fill="#F7C08E" transform="translate(170,96)"/>
<path d="M0 0 C-3.75684906 1.25228302 -5.22938816 0.14318141 -8.76611328 -1.27490234 C-12.47682656 -2.47936337 -16.06918127 -2.40158805 -19.9375 -2.3125 C-21.12218872 -2.29993164 -21.12218872 -2.29993164 -22.33081055 -2.28710938 C-27.80279943 -2.17411012 -32.70722966 -1.43532755 -38 0 C-41.0625 0.125 -41.0625 0.125 -43 0 C-32.88867355 -8.78722418 -10.44840985 -7.03258355 0 0 Z " fill="#F5A964" transform="translate(182,39)"/>
<path d="M0 0 C7.47394574 -0.37369729 13.82140651 0.95938459 21 3 C21 3.99 21 4.98 21 6 C18.10359882 6.08120751 15.20949088 6.14059421 12.3125 6.1875 C11.49587891 6.21263672 10.67925781 6.23777344 9.83789062 6.26367188 C5.02153514 6.32217012 1.96024846 6.07302376 -2 3 C-1.67 2.34 -1.34 1.68 -1 1 C-0.236875 1.495 0.52625 1.99 1.3125 2.5 C6.41273078 4.57467015 10.51218791 4.20077361 16 4 C10.72 3.01 5.44 2.02 0 1 C0 0.67 0 0.34 0 0 Z " fill="#EFBD90" transform="translate(51,161)"/>
<path d="M0 0 C1.37616443 0.06116286 2.75109379 0.15024443 4.125 0.25 C5.27355469 0.31960937 5.27355469 0.31960937 6.4453125 0.390625 C9.86830995 1.2071198 12.11200633 3.00420289 15 5 C17.99173128 6.59276214 21.06892931 8.01222843 24.140625 9.44335938 C27.42650826 11.02610702 28.92780283 11.89170424 31 15 C26.96479403 13.41037341 22.98188718 11.71767682 19 10 C19 9.34 19 8.68 19 8 C18.34 7.896875 17.68 7.79375 17 7.6875 C13.16158991 6.80786436 9.66903309 5.43030104 6 4 C6 3.34 6 2.68 6 2 C3.03 1.505 3.03 1.505 0 1 C0 0.67 0 0.34 0 0 Z " fill="#F6BC89" transform="translate(170,193)"/>
<path d="M0 0 C8.53786326 2.40127404 15.11265326 10.61919804 19.8125 17.75 C21 20 21 20 21 22 C19.68 21.67 18.36 21.34 17 21 C16.896875 20.41734375 16.79375 19.8346875 16.6875 19.234375 C14.57477108 12.36800601 6.98546942 7.05605154 1.72265625 2.56640625 C1.15417969 2.04949219 0.58570313 1.53257813 0 1 C0 0.67 0 0.34 0 0 Z " fill="#F7B478" transform="translate(191,23)"/>
<path d="M0 0 C0.66 0.33 1.32 0.66 2 1 C-0.58622965 3.69398922 -3.29852336 6.24053318 -6.0625 8.75 C-7.06990234 9.67039062 -7.06990234 9.67039062 -8.09765625 10.609375 C-10 12 -10 12 -13 12 C-11.76585034 10.53236256 -10.53162484 9.06478878 -9.296875 7.59765625 C-7.89885623 5.92303031 -7.89885623 5.92303031 -6.4375 3.6875 C-4.70963827 1.65914058 -3.57740081 1.4295668 -1 1 C-0.67 0.67 -0.34 0.34 0 0 Z " fill="#F7AA67" transform="translate(112,53)"/>
<path d="M0 0 C0.68964844 0.19335938 1.37929688 0.38671875 2.08984375 0.5859375 C8.03171334 2.23238147 13.96970983 3.71485619 20 5 C20 5.33 20 5.66 20 6 C12.45709983 6.4946164 6.941085 4.90617391 0 2 C0 1.34 0 0.68 0 0 Z " fill="#F6B070" transform="translate(47,176)"/>
<path d="M0 0 C1.66611905 -0.042721 3.33382885 -0.04063832 5 0 C5.33 0.33 5.66 0.66 6 1 C8.01594582 1.23427778 10.038474 1.41336124 12.0625 1.5625 C13.16722656 1.64628906 14.27195312 1.73007813 15.41015625 1.81640625 C16.26480469 1.87699219 17.11945313 1.93757812 18 2 C17.67 2.66 17.34 3.32 17 4 C5.47835991 4.3690205 5.47835991 4.3690205 0 2 C0 1.34 0 0.68 0 0 Z " fill="#F7B77E" transform="translate(91,150)"/>
<path d="M0 0 C0.99 0.33 1.98 0.66 3 1 C-2.28 5.29 -7.56 9.58 -13 14 C-13.66 13.67 -14.32 13.34 -15 13 C-13.08181358 11.31598179 -11.16126217 9.63500614 -9.234375 7.9609375 C-7.81241273 6.71299159 -6.40434311 5.44890012 -5.015625 4.1640625 C-4.41234375 3.61492188 -3.8090625 3.06578125 -3.1875 2.5 C-2.64480469 1.9946875 -2.10210937 1.489375 -1.54296875 0.96875 C-1.03378906 0.6490625 -0.52460937 0.329375 0 0 Z " fill="#F6B982" transform="translate(103,23)"/>
<path d="M0 0 C1.43088528 2.86177057 0.59991697 4.93375773 0 8 C5.7974423 8.24428343 5.7974423 8.24428343 11 6 C10.4375 7.9375 10.4375 7.9375 9 10 C5.5625 10.875 5.5625 10.875 2 11 C1.01 10.34 0.02 9.68 -1 9 C-1.47114738 6.2572492 -1.17805784 3.80441103 -1 1 C-0.67 0.67 -0.34 0.34 0 0 Z " fill="#F7B375" transform="translate(1,158)"/>
<path d="M0 0 C0 0.33 0 0.66 0 1 C-1.65 1 -3.3 1 -5 1 C-5 1.66 -5 2.32 -5 3 C-6.43671568 3.64757625 -7.87440416 4.29299453 -9.3125 4.9375 C-10.11300781 5.29714844 -10.91351563 5.65679687 -11.73828125 6.02734375 C-14 7 -14 7 -17 8 C-17 7.34 -17 6.68 -17 6 C-15.30099815 4.98422665 -13.59029549 3.9880102 -11.875 3 C-10.92367187 2.443125 -9.97234375 1.88625 -8.9921875 1.3125 C-5.73484878 -0.11630654 -3.5162171 -0.25041309 0 0 Z " fill="#F6C090" transform="translate(139,39)"/>
<path d="M0 0 C0.66 1.32 1.32 2.64 2 4 C1.38125 4.721875 0.7625 5.44375 0.125 6.1875 C-1.83666353 8.78381938 -2.95316 10.94671666 -4 14 C-4.9113287 11.47942631 -5.08517871 10.26674385 -4.2578125 7.67578125 C-3.88398437 6.89589844 -3.51015625 6.11601563 -3.125 5.3125 C-2.75632813 4.52488281 -2.38765625 3.73726563 -2.0078125 2.92578125 C-1 1 -1 1 0 0 Z " fill="#F7AD6D" transform="translate(40,94)"/>
<path d="M0 0 C-4.9748792 3.31658613 -11.03568353 4.38479461 -17 4 C-12.1655758 -0.44767026 -6.26523716 -0.15281066 0 0 Z " fill="#F6B67D" transform="translate(156,35)"/>
<path d="M0 0 C0.66 0 1.32 0 2 0 C0.43903239 3.83146596 -1.91411305 6.28148054 -5 9 C-7.3125 9.8125 -7.3125 9.8125 -9 10 C-9 9.34 -9 8.68 -9 8 C-8.34 8 -7.68 8 -7 8 C-6.67 7.01 -6.34 6.02 -6 5 C-4.35178756 3.96986723 -2.68496298 2.96885372 -1 2 C-0.67 1.34 -0.34 0.68 0 0 Z " fill="#F7B67D" transform="translate(135,130)"/>
<path d="M0 0 C3.63 0.33 7.26 0.66 11 1 C11 1.33 11 1.66 11 2 C7.7 2 4.4 2 1 2 C1 2.66 1 3.32 1 4 C0.34 4 -0.32 4 -1 4 C-0.67 2.68 -0.34 1.36 0 0 Z " fill="#F19440" transform="translate(48,159)"/>
</svg>
