<?xml version="1.0" encoding="UTF-8"?>
<svg version="1.1" xmlns="http://www.w3.org/2000/svg" width="280" height="280">
<path d="M0 0 C3.26077469 1.61218767 6.23402768 3.59838797 9.25 5.625 C10.95654825 6.7390215 12.66357409 7.85231176 14.37109375 8.96484375 C15.1791748 9.49706543 15.98725586 10.02928711 16.81982422 10.57763672 C19.27943163 12.18230332 21.77881926 13.70282231 24.3125 15.1875 C29.05762664 17.98762773 33.66776398 20.98877967 38.26879883 24.01831055 C40.83696263 25.69278965 43.076192 27.02539733 46 28 C46 28.66 46 29.32 46 30 C47.07894531 30.40605469 47.07894531 30.40605469 48.1796875 30.8203125 C57.70684435 34.80535595 66.43700653 41.13186437 75.13134766 46.65454102 C79.22719578 49.25513808 83.32872 51.83372019 87.5 54.3125 C90.99353727 56.39388688 94.47765928 58.48790723 97.9375 60.625 C99.28134766 61.44871094 99.28134766 61.44871094 100.65234375 62.2890625 C103.03289821 64.02397573 104.49289573 65.4783092 106 68 C106.1875 71.375 106.1875 71.375 105 75 C102.58511736 77.40916017 99.87030674 79.1758307 97 81 C96.41992188 81.41636719 95.83984375 81.83273438 95.2421875 82.26171875 C92.59023498 84.16072998 91.33780262 85 88 85 C88 85.66 88 86.32 88 87 C85.5903077 88.54886752 83.1825762 89.97489708 80.6875 91.375 C73.16605727 95.68742232 65.81275649 100.21503978 58.51049805 104.88818359 C45.80107372 113 45.80107372 113 43 113 C43 113.66 43 114.32 43 115 C42.0821875 115.51949219 41.164375 116.03898437 40.21875 116.57421875 C30.45102017 122.03016646 30.45102017 122.03016646 21 128 C21 128.66 21 129.32 21 130 C24.63 131.98 28.26 133.96 32 136 C32 136.66 32 137.32 32 138 C32.59240479 138.12093018 33.18480957 138.24186035 33.79516602 138.36645508 C37.89623013 139.54486958 41.34597907 142.5314111 44.77929688 145.02539062 C48.29057136 147.49275016 48.29057136 147.49275016 52.41796875 147.60546875 C53.27003906 147.07566406 54.12210938 146.54585937 55 146 C55.61576904 145.62093506 56.23153809 145.24187012 56.8659668 144.85131836 C59.05996444 143.47703362 61.21863909 142.05754746 63.375 140.625 C77.94117647 131 77.94117647 131 81 131 C81 130.34 81 129.68 81 129 C81.75925781 128.59007812 82.51851562 128.18015625 83.30078125 127.7578125 C84.29464844 127.21898437 85.28851563 126.68015625 86.3125 126.125 C87.29863281 125.59132813 88.28476563 125.05765625 89.30078125 124.5078125 C92.09586458 122.99277874 92.09586458 122.99277874 95 121 C100.78571429 121 100.78571429 121 103 122 C105.51232331 126.19619211 106.37718256 129.33759119 106.38818359 134.20141602 C106.39764008 135.40609024 106.40709656 136.61076447 106.4168396 137.85194397 C106.40773056 139.7834153 106.40773056 139.7834153 106.3984375 141.75390625 C106.40046091 143.10098935 106.40337457 144.44807138 106.40713501 145.79515076 C106.41154434 148.61020396 106.40517167 151.4249705 106.39111328 154.23999023 C106.37400522 157.84021804 106.3838809 161.43977562 106.40183067 165.03997898 C106.41269241 167.81875116 106.40921161 170.59736546 106.4014473 173.3761425 C106.3984863 175.34643364 106.40756216 177.31673104 106.4168396 179.28700256 C106.40265488 181.08928566 106.40265488 181.08928566 106.38818359 182.92797852 C106.38579681 183.98243668 106.38341003 185.03689484 106.38095093 186.12330627 C105.94124387 189.4436881 104.96112505 191.30733075 103 194 C100.58984375 195.80078125 100.58984375 195.80078125 97.9375 197.3125 C97.05964844 197.82425781 96.18179688 198.33601562 95.27734375 198.86328125 C93 200 93 200 91 200 C91 200.66 91 201.32 91 202 C90.20464844 202.37253906 89.40929687 202.74507812 88.58984375 203.12890625 C84.04739307 205.40079783 79.83187825 208.19695306 75.5625 210.9375 C59.8452454 221 59.8452454 221 57 221 C57 221.66 57 222.32 57 223 C56.14019531 223.4846875 55.28039062 223.969375 54.39453125 224.46875 C46.99916022 228.65735331 39.72493187 232.9793115 32.546875 237.53125 C30 239 30 239 28 239 C28 239.66 28 240.32 28 241 C26.35 241.33 24.7 241.66 23 242 C23 242.66 23 243.32 23 244 C22.09378906 244.50789062 21.18757812 245.01578125 20.25390625 245.5390625 C19.02305656 246.23370044 17.79261565 246.92906301 16.5625 247.625 C15.92376953 247.98529297 15.28503906 248.34558594 14.62695312 248.71679688 C10.23840293 251.21884618 6.09274738 253.91356247 2.0625 256.96875 C-0.99916407 258.49958203 -2.57739619 258.53453253 -6 258 C-9.38373726 256.30136089 -12.48598915 254.23538114 -15.625 252.125 C-17.30376444 251.02203129 -18.98342009 249.92041755 -20.6640625 248.8203125 C-21.40092285 248.32805176 -22.1377832 247.83579102 -22.89697266 247.32861328 C-24.88205816 246.0745112 -26.88173095 245.00918382 -29 244 C-29 243.34 -29 242.68 -29 242 C-30.65 241.67 -32.3 241.34 -34 241 C-34 240.34 -34 239.68 -34 239 C-35.16982422 238.70802734 -35.16982422 238.70802734 -36.36328125 238.41015625 C-41.4448663 236.43974572 -45.67968738 233.46990979 -50.1875 230.4375 C-51.97068167 229.24573813 -53.75575618 228.05680217 -55.54296875 226.87109375 C-56.32696045 226.34443115 -57.11095215 225.81776855 -57.91870117 225.27514648 C-60.06347324 223.85330694 -60.06347324 223.85330694 -63 223 C-63 222.34 -63 221.68 -63 221 C-64.06347656 220.60361328 -64.06347656 220.60361328 -65.1484375 220.19921875 C-73.45176476 216.70727153 -81.02310602 211.37459164 -88.57421875 206.51171875 C-91.31635004 204.80285432 -94.06676571 203.34770224 -97 202 C-97 201.34 -97 200.68 -97 200 C-97.99 199.6596875 -97.99 199.6596875 -99 199.3125 C-109.70859057 194.62749163 -109.70859057 194.62749163 -112 189 C-112.25447559 186.64769077 -112.25447559 186.64769077 -112.26069641 183.9969635 C-112.26778122 182.98899216 -112.27486603 181.98102081 -112.28216553 180.94250488 C-112.27968811 179.84265259 -112.27721069 178.74280029 -112.2746582 177.60961914 C-112.27976913 176.44663803 -112.28488007 175.28365692 -112.29014587 174.08543396 C-112.30406317 170.23528926 -112.3030835 166.38532313 -112.30078125 162.53515625 C-112.30368505 160.53778484 -112.30659332 158.54041336 -112.310188 156.54304308 C-112.32127958 150.26313351 -112.32172256 143.98328376 -112.31567383 137.70336914 C-112.30963343 131.22881201 -112.32194736 124.75447217 -112.3432439 118.27995211 C-112.36086734 112.71719258 -112.3668601 107.15450217 -112.36360615 101.59171575 C-112.36179432 98.27104121 -112.36573403 94.95055616 -112.37832069 91.62989998 C-112.39063569 87.92635406 -112.38392258 84.22331302 -112.37231445 80.51977539 C-112.37995819 79.42194733 -112.38760193 78.32411926 -112.39547729 77.19302368 C-112.33080581 67.87359871 -112.33080581 67.87359871 -109 64 C-106.58984375 62.19921875 -106.58984375 62.19921875 -103.9375 60.6875 C-103.05964844 60.17574219 -102.18179688 59.66398437 -101.27734375 59.13671875 C-99 58 -99 58 -97 58 C-97 57.34 -97 56.68 -97 56 C-96.20464844 55.62746094 -95.40929687 55.25492188 -94.58984375 54.87109375 C-90.04739307 52.59920217 -85.83187825 49.80304694 -81.5625 47.0625 C-65.8452454 37 -65.8452454 37 -63 37 C-63 36.34 -63 35.68 -63 35 C-62.36835937 34.67128906 -61.73671875 34.34257813 -61.0859375 34.00390625 C-54.75501494 30.6377529 -48.71926855 26.98155166 -42.77294922 22.98461914 C-39.90718549 21.08845931 -37.43533784 19.51487864 -34 19 C-34 18.34 -34 17.68 -34 17 C-32.35 16.67 -30.7 16.34 -29 16 C-29 15.34 -29 14.68 -29 14 C-28.09378906 13.49210937 -27.18757813 12.98421875 -26.25390625 12.4609375 C-25.02305656 11.76629956 -23.79261565 11.07093699 -22.5625 10.375 C-21.92376953 10.01470703 -21.28503906 9.65441406 -20.62695312 9.28320312 C-16.23840293 6.78115382 -12.09274738 4.08643753 -8.0625 1.03125 C-5.01851852 -0.49074074 -3.39833808 -0.51852576 0 0 Z " fill="#241F20" transform="translate(143,11)"/>
<path d="M0 0 C2.71350301 0.79017777 4.67390703 1.80122873 7.05493164 3.31347656 C7.8934668 3.84005859 8.73200195 4.36664063 9.59594727 4.90917969 C10.48604492 5.47830078 11.37614258 6.04742187 12.29321289 6.63378906 C14.19262676 7.82961908 16.09237168 9.02492339 17.99243164 10.21972656 C18.94037598 10.81881836 19.88832031 11.41791016 20.86499023 12.03515625 C24.75523954 14.48172316 28.67821066 16.87266628 32.60571289 19.25878906 C47.39570685 28.27498102 62.10452703 37.42323243 76.78393555 46.61816406 C80.05653647 48.66715783 83.33121507 50.71282858 86.60571289 52.75878906 C83.55287266 55.97956436 79.99249085 58.1438519 76.23071289 60.44628906 C75.51173828 60.89125732 74.79276367 61.33622559 74.05200195 61.79467773 C70.82964616 63.78669896 67.59818724 65.76337699 64.36352539 67.73535156 C56.75785587 72.37777322 49.28158227 77.19193647 41.84692383 82.10375977 C37.18922666 85.16066429 32.48072686 88.00080701 27.58862305 90.66625977 C25.13359399 92.01891367 22.7723404 93.48801501 20.41821289 95.00878906 C19.50426758 95.59015625 18.59032227 96.17152344 17.64868164 96.77050781 C15.39490256 98.24313111 13.17851896 99.74214138 10.96899414 101.27832031 C10.34855225 101.70016602 9.72811035 102.12201172 9.08886719 102.55664062 C7.87031041 103.38598291 6.66159564 104.23001515 5.46435547 105.08984375 C1.31779952 107.88328787 1.31779952 107.88328787 -1.78491211 107.34082031 C-5.49597038 105.09085235 -9.15426382 102.78537796 -12.76928711 100.38378906 C-17.28848307 97.39760657 -21.79413359 94.48180777 -26.5222168 91.83154297 C-30.52247085 89.53927428 -34.41696278 87.06801594 -38.33178711 84.63378906 C-39.25475586 84.06120361 -40.17772461 83.48861816 -41.12866211 82.89868164 C-47.37475017 79.02133392 -53.61189663 75.12976294 -59.84155273 71.22607422 C-63.98996305 68.62852131 -68.15619013 66.06242005 -72.33178711 63.50878906 C-77.43607039 60.37748311 -82.44764903 57.13323985 -87.39428711 53.75878906 C-83.45489878 50.45454204 -79.32779433 47.74841871 -74.95678711 45.07128906 C-73.52917571 44.18933077 -72.10210263 43.30650056 -70.67553711 42.42285156 C-69.96010742 41.97973633 -69.24467773 41.53662109 -68.50756836 41.08007812 C-65.29890797 39.07392401 -62.12917758 37.00910704 -58.95678711 34.94628906 C-54.68635778 32.17914994 -50.37052912 29.59199706 -45.89428711 27.17285156 C-40.37604079 24.05159349 -35.05220805 20.59520244 -29.69311523 17.21044922 C-27.24622576 15.66529153 -24.796928 14.12399807 -22.34741211 12.58300781 C-20.65458006 11.51679796 -18.96186956 10.4503951 -17.26928711 9.38378906 C-16.47603027 8.88419678 -15.68277344 8.38460449 -14.86547852 7.86987305 C-13.73118408 7.15359741 -13.73118408 7.15359741 -12.57397461 6.42285156 C-11.85435547 5.97200195 -11.13473633 5.52115234 -10.39331055 5.05664062 C-9.13139131 4.23734865 -7.89069129 3.38346494 -6.68432617 2.484375 C-2.94522585 -0.29671491 -2.94522585 -0.29671491 0 0 Z " fill="#F38013" transform="translate(140.394287109375,28.2412109375)"/>
<path d="M0 0 C0.86625 0.2475 1.7325 0.495 2.625 0.75 C3.95649104 0.83151986 5.29102514 0.87000384 6.625 0.875 C7.5840625 0.87886719 7.5840625 0.87886719 8.5625 0.8828125 C10.71167562 0.82436538 10.71167562 0.82436538 13.015625 0.015625 C16.79914659 -0.3695239 18.34430221 1.17012727 21.375 3.375 C24.95260557 5.89727761 28.45059146 8.31169561 32.3125 10.375 C36.95638523 12.8670483 41.28597655 15.76499805 45.625 18.75 C44.42719822 22.34340533 43.65343459 22.61352773 40.46875 24.45703125 C39.61023438 24.96169922 38.75171875 25.46636719 37.8671875 25.98632812 C36.96226562 26.50646484 36.05734375 27.02660156 35.125 27.5625 C29.21426829 31.00170894 23.3969146 34.49455115 17.73242188 38.32836914 C13.95281113 40.8780301 10.0960045 43.30803776 6.25 45.75585938 C3.28440945 47.55378031 3.28440945 47.55378031 0.625 49.75 C0.5024645 51.28382679 0.44722062 52.82310519 0.41967773 54.36157227 C0.39973251 55.34251358 0.37978729 56.3234549 0.35923767 57.3341217 C0.34252518 58.4007756 0.32581268 59.4674295 0.30859375 60.56640625 C0.2774221 62.19569313 0.2774221 62.19569313 0.24562073 63.8578949 C0.18000558 67.34269627 0.12118489 70.82757568 0.0625 74.3125 C0.01932615 76.66862801 -0.02428776 79.02474799 -0.06835938 81.38085938 C-0.17568792 87.17048937 -0.27743165 92.96019775 -0.375 98.75 C-4.52179947 96.69526596 -8.42905794 94.35247953 -12.375 91.9375 C-13.15738037 91.45974121 -13.93976074 90.98198242 -14.74584961 90.48974609 C-21.71178148 86.209483 -28.56794701 81.76812881 -35.38476562 77.25463867 C-39.81107874 74.3413182 -44.28359295 71.6564508 -48.93530273 69.12109375 C-53.93314325 66.31234039 -58.76711661 63.22965973 -63.625 60.1875 C-64.6871875 59.52814453 -65.749375 58.86878906 -66.84375 58.18945312 C-67.86984375 57.54814453 -68.8959375 56.90683594 -69.953125 56.24609375 C-71.33612793 55.38262329 -71.33612793 55.38262329 -72.74707031 54.50170898 C-75.41973091 52.72018355 -77.89759652 50.79220664 -80.375 48.75 C-77.7514627 47.08047626 -75.12785747 45.41106069 -72.50390625 43.7421875 C-70.55207639 42.49944939 -68.60135974 41.25495903 -66.65234375 40.0078125 C-61.91904916 36.98240771 -57.16511615 33.99720407 -52.375 31.0625 C-46.76737916 27.62145994 -41.19021972 24.13419227 -35.625 20.625 C-34.84511719 20.13427002 -34.06523438 19.64354004 -33.26171875 19.13793945 C-28.61488736 16.20271062 -24.02402812 13.19909486 -19.47631836 10.11230469 C-16.55145365 8.21608706 -13.51249163 6.56690856 -10.44140625 4.921875 C-8.54925186 3.84881958 -6.86494782 2.67439837 -5.125 1.375 C-2.375 -0.25 -2.375 -0.25 0 0 Z " fill="#FCFCFC" transform="translate(133.375,149.25)"/>
<path d="M0 0 C0.22304079 5.72890742 0.38603876 11.45527398 0.49438477 17.1875 C0.53955622 19.135539 0.6009115 21.08327431 0.67895508 23.03027344 C1.30614523 39.08306178 1.30614523 39.08306178 -1.62158203 43.37988281 C-4.00490186 44.98382317 -6.32686795 45.95308892 -9 47 C-10.95791824 48.18567027 -12.89468947 49.40674586 -14.8125 50.65625 C-17.9123585 52.58478792 -21.01477629 54.50916575 -24.1171875 56.43359375 C-29.48359676 59.77223768 -34.80297198 63.15341943 -40.02587891 66.71313477 C-42.81359831 68.53035823 -45.72627463 70.08485311 -48.6484375 71.67333984 C-51.15820658 73.08925401 -53.57575074 74.60633587 -56 76.1640625 C-62.18711106 80.12271668 -68.4010771 84.03702187 -74.625 87.9375 C-75.71167969 88.62134766 -76.79835937 89.30519531 -77.91796875 90.00976562 C-78.94792969 90.65494141 -79.97789062 91.30011719 -81.0390625 91.96484375 C-81.96928223 92.5487085 -82.89950195 93.13257324 -83.85791016 93.73413086 C-86 95 -86 95 -87 95 C-87 81.14 -87 67.28 -87 53 C-84.69 51.68 -82.38 50.36 -80 49 C-78.14411684 47.86936209 -76.29488821 46.72771459 -74.453125 45.57421875 C-73.4425 44.94193359 -72.431875 44.30964844 -71.390625 43.65820312 C-70.35421875 43.00787109 -69.3178125 42.35753906 -68.25 41.6875 C-67.2290625 41.04876953 -66.208125 40.41003906 -65.15625 39.75195312 C-60.14417647 36.61304667 -55.14373375 33.4574016 -50.16015625 30.2734375 C-46.20798579 27.75413272 -42.22589653 25.31561259 -38.1875 22.9375 C-26.76772827 16.15343184 -15.41204033 9.11878694 -4.47265625 1.58203125 C-2 0 -2 0 0 0 Z " fill="#FCFCFC" transform="translate(234,153)"/>
<path d="M0 0 C3.42911873 1.37164749 5.91256665 2.43611655 8.90625 4.36328125 C10.0058606 5.06541748 10.0058606 5.06541748 11.12768555 5.78173828 C11.91054932 6.28688965 12.69341309 6.79204102 13.5 7.3125 C15.20386324 8.400623 16.90831184 9.48782981 18.61328125 10.57421875 C19.49709473 11.13802246 20.3809082 11.70182617 21.29150391 12.28271484 C25.73444514 15.09970138 30.21053583 17.86252174 34.6875 20.625 C47.17435352 28.33908535 59.63643703 36.08941522 72 44 C70.87792752 47.36621745 70.49605691 47.59841979 67.59765625 49.3125 C66.8816626 49.74232178 66.16566895 50.17214355 65.42797852 50.61499023 C64.25706665 51.30057007 64.25706665 51.30057007 63.0625 52 C61.40614474 52.99070945 59.74989765 53.98159978 58.09375 54.97265625 C57.24425781 55.47684082 56.39476562 55.98102539 55.51953125 56.50048828 C51.68282154 58.7839254 47.87157596 61.1083458 44.0625 63.4375 C42.95902222 64.11111572 42.95902222 64.11111572 41.83325195 64.79833984 C31.72638148 70.98237229 21.6847627 77.28250695 11.76171875 83.7578125 C11.11235352 84.18046387 10.46298828 84.60311523 9.79394531 85.03857422 C8.58871149 85.8250511 7.38606913 86.61551901 6.18652344 87.41064453 C2.22062537 90 2.22062537 90 0 90 C0 60.3 0 30.6 0 0 Z " fill="#FDFDFD" transform="translate(46,95)"/>
</svg>
