<?xml version="1.0" encoding="UTF-8"?>
<svg version="1.1" xmlns="http://www.w3.org/2000/svg" width="145" height="146">
<path d="M0 0 C3.4375 1.8125 3.4375 1.8125 6 4 C6.5775 4.474375 7.155 4.94875 7.75 5.4375 C11.1333683 9.66671037 11.50038574 14.17522948 11.375 19.43359375 C10.64145128 24.45381778 8.20498835 28.10542263 4.390625 31.3828125 C0.03304435 34.24122549 -3.98910192 34.80884575 -9 34 C-15.05717629 32.08189417 -17.91943914 29.55491514 -21.0859375 24.14453125 C-23.18366384 19.22294253 -22.55674969 13.63931854 -20.875 8.6875 C-15.5302348 1.02666989 -9.09429064 -1.04825157 0 0 Z " fill="#263450" transform="translate(134,56)"/>
<path d="M0 0 C4.98669007 2.49334503 8.49675474 5.99350949 11 11 C11.52779267 17.2117137 11.74403643 22.758349 8 28 C4.07216248 31.93856932 0.89701103 33.8735326 -4.75 34.25 C-9.10649276 34.21772968 -12.13076659 32.93461671 -16 31 C-16 30.34 -16 29.68 -16 29 C-16.66 29 -17.32 29 -18 29 C-21.14946751 23.71339383 -23.19081362 19.20666491 -22 13 C-20.19384193 7.70708758 -17.78459095 4.06704548 -13 1 C-8.64950335 -0.45016555 -4.54665815 -0.51070107 0 0 Z " fill="#273550" transform="translate(78,56)"/>
<path d="M0 0 C4.98669007 2.49334503 8.49675474 5.99350949 11 11 C11.5072965 16.55531248 11.76260422 21.41830236 9.3125 26.5 C4.89925661 31.27107393 1.75913616 33.86649341 -4.875 34.1875 C-9.5073628 34.07780835 -12.4138883 33.57252616 -15.82421875 30.19140625 C-20.25919028 25.28864868 -22.38255056 22.06718152 -22.28125 15.19140625 C-21.6163771 10.0109382 -19.16627073 6.10937947 -15.4375 2.5625 C-10.55555756 -0.56695028 -5.63644699 -0.63311105 0 0 Z " fill="#263450" transform="translate(22,56)"/>
<path d="M0 0 C4.49011466 2.49839065 7.09405811 5.68486082 8.875 10.5 C9.82581943 16.42433643 9.37188712 21.48779513 5.875 26.5 C1.6624815 30.63388483 -1.4592691 32.65894961 -7.375 32.8125 C-12.46437369 32.75927779 -15.24881874 31.99801724 -19.125 28.5 C-23.38705815 23.77717881 -24.49360238 20.13992937 -24.40234375 13.9140625 C-23.75638292 8.29147387 -21.44299562 4.54901693 -17.0625 1.0625 C-11.28421622 -2.0110552 -6.0923789 -2.61431004 0 0 Z " fill="#273551" transform="translate(136.125,113.5)"/>
<path d="M0 0 C4.84070772 2.91156959 7.98230262 5.55628285 9.8046875 11.0234375 C10.55687957 17.67496449 10.32739368 22.93432468 6.2734375 28.4296875 C2.54731221 32.47292983 -1.26875248 33.24177545 -6.5703125 33.5859375 C-11.69650177 33.4322915 -14.75367635 32.15589037 -18.6015625 28.796875 C-21.96800125 25.05088678 -23.04272048 21.44762968 -23.5703125 16.5234375 C-22.81855233 9.50700928 -20.22165782 5.54065932 -14.9140625 1.1875 C-10.45808958 -1.83040893 -4.85088724 -2.15786799 0 0 Z " fill="#263450" transform="translate(23.1953125,112.9765625)"/>
<path d="M0 0 C4.77019054 2.71945442 8.23788131 5.77234434 9.83984375 11.12890625 C10.58690003 16.47502779 10.55094022 20.6803764 8.15234375 25.56640625 C4.85618714 29.21890412 1.53031542 32.86073832 -3.55078125 33.3671875 C-8.06047189 33.48424231 -11.36768147 33.48111726 -15.53515625 31.62890625 C-20.13610346 27.24705177 -23.41753077 23.0437658 -23.66015625 16.50390625 C-23.25857892 10.50084007 -21.1080304 6.78469989 -16.66015625 2.81640625 C-11.79315494 -1.25010142 -5.95814835 -2.40265295 0 0 Z " fill="#273551" transform="translate(79.16015625,112.87109375)"/>
<path d="M0 0 C4.42093191 1.93900522 7.08625403 4.52851004 9.30078125 8.8828125 C10.99264375 14.00565873 11.060198 19.35385007 9.046875 24.37890625 C5.93435461 29.72731945 2.77148028 32.25383223 -3.25 33.875 C-8.81565637 34.06052188 -13.60837926 33.11700875 -17.87109375 29.34375 C-22.14275689 24.50867806 -23.3212012 20.68771262 -23.20703125 14.2734375 C-22.76390304 9.40738806 -20.38182786 6.09194579 -17.125 2.625 C-12.09827556 -1.44782578 -6.11727493 -0.90655492 0 0 Z " fill="#263450" transform="translate(79,0)"/>
<path d="M0 0 C4.39281723 1.96107912 7.09389795 4.54353984 9.30078125 8.8828125 C10.99264375 14.00565873 11.060198 19.35385007 9.046875 24.37890625 C5.93435461 29.72731945 2.77148028 32.25383223 -3.25 33.875 C-9.41641833 34.08054728 -14.09308765 32.50118632 -18.9375 28.6875 C-22.7088318 23.77334038 -23.63386102 19.12732324 -23 13 C-19.00787698 1.4983699 -11.48275856 -1.05208521 0 0 Z " fill="#273550" transform="translate(23,0)"/>
<path d="M0 0 C4.59215431 2.58088917 8.07700065 6.04988683 10 11 C10.67375822 16.18637141 10.65925549 20.63077706 8.375 25.375 C4.73087638 29.40271558 1.91094821 32.47883231 -3.4375 33.9375 C-10.24790338 34.05698076 -14.66239842 32.12571134 -19.5546875 27.5625 C-23.15438879 23.67093104 -23.44869866 19.45119974 -23.3125 14.34375 C-22.60250331 9.0187748 -20.26397685 5.29638651 -16.5625 1.5 C-11.03715912 -0.82645932 -5.88867412 -1.08305699 0 0 Z " fill="#273551" transform="translate(135,0)"/>
<path d="M0 0 C0.99 0.33 1.98 0.66 3 1 C2.45730469 1.45890625 1.91460937 1.9178125 1.35546875 2.390625 C0.64003906 3.00421875 -0.07539063 3.6178125 -0.8125 4.25 C-1.52019531 4.85328125 -2.22789063 5.4565625 -2.95703125 6.078125 C-4.91889671 7.92370398 -6.45669625 9.79945332 -8 12 C-7.58388059 7.1452735 -5.54108048 5.19560921 -2 2 C-1.34 1.34 -0.68 0.68 0 0 Z " fill="#4C556C" transform="translate(9,57)"/>
<path d="M0 0 C-1.66751148 3.94139078 -4.22710649 6.7892812 -7 10 C-7.33 9.01 -7.66 8.02 -8 7 C-6.85546875 5.17578125 -6.85546875 5.17578125 -5.1875 3.3125 C-4.37345703 2.37857422 -4.37345703 2.37857422 -3.54296875 1.42578125 C-2 0 -2 0 0 0 Z " fill="#454F63" transform="translate(65,2)"/>
<path d="M0 0 C-1.44077046 3.36179774 -3.24750021 5.59156268 -6 8 C-6.66 8 -7.32 8 -8 8 C-6.48291727 4.46014029 -4.24676932 0 0 0 Z " fill="#424C61" transform="translate(10,114)"/>
<path d="M0 0 C0.99 0.33 1.98 0.66 3 1 C-0.96 4.465 -0.96 4.465 -5 8 C-5.66 7.34 -6.32 6.68 -7 6 C-5.90716423 4.96704564 -4.80029421 3.94892165 -3.6875 2.9375 C-3.07261719 2.36902344 -2.45773438 1.80054688 -1.82421875 1.21484375 C-0.92123047 0.61349609 -0.92123047 0.61349609 0 0 Z " fill="#3D4657" transform="translate(121,57)"/>
<path d="M0 0 C-0.886875 0.4125 -1.77375 0.825 -2.6875 1.25 C-5.81312366 2.90127288 -8.31905614 4.71331259 -11 7 C-10.62118922 4.25362183 -10.22167713 3.19950942 -8.125 1.3125 C-4.91782756 -0.66840062 -3.65108617 -1.21702872 0 0 Z " fill="#3C4656" transform="translate(71,57)"/>
<path d="M0 0 C0.99 0.33 1.98 0.66 3 1 C2.113125 1.5775 1.22625 2.155 0.3125 2.75 C-2.59042244 4.68068476 -5.30768649 6.78280064 -8 9 C-6.99023354 5.36484074 -6.05356282 4.04330611 -3.0625 1.625 C-2.051875 1.08875 -1.04125 0.5525 0 0 Z " fill="#3D475A" transform="translate(122,113)"/>
</svg>
